<?xml version="1.0" encoding="utf-8"?>
<COLLADA xmlns="http://www.collada.org/2005/11/COLLADASchema" version="1.4.1">
  <asset>
    <contributor>
      <author/>
      <authoring_tool>FBX COLLADA exporter</authoring_tool>
      <comments/>
    </contributor>
    <created>2025-05-19T09:35:35Z</created>
    <keywords/>
    <modified>2025-05-19T09:35:35Z</modified>
    <revision/>
    <subject/>
    <title/>
    <unit meter="0.025400" name="centimeter"/>
    <up_axis>Y_UP</up_axis>
  </asset>
  <library_geometries>
    <geometry id="Box001-lib" name="Box001Mesh">
      <mesh>
        <source id="Box001-POSITION">
          <float_array id="Box001-POSITION-array" count="711">
-2.759165 -1.915164 0.000000
-2.207332 -1.915164 0.000000
-1.655499 -1.915164 0.000000
-1.103666 -1.915164 0.000000
-0.551833 -1.915164 0.000000
-0.000000 -1.915164 0.000000
0.551833 -1.915164 0.000000
1.103666 -1.915164 0.000000
1.655499 -1.915164 0.000000
2.207332 -1.915164 0.000000
2.759165 -1.915164 0.000000
-2.759165 -1.532131 0.000000
-2.207332 -1.532131 0.000000
-1.655499 -1.532131 0.000000
-1.103666 -1.532131 0.000000
-0.551833 -1.532131 0.000000
-0.000000 -1.532131 0.000000
0.551833 -1.532131 0.000000
1.103666 -1.532131 0.000000
1.655499 -1.532131 0.000000
2.207332 -1.532131 0.000000
2.759165 -1.532131 0.000000
-2.759165 -1.149099 0.000000
-2.207332 -1.149099 0.000000
-1.655499 -1.149099 0.000000
-1.103666 -1.149099 0.000000
-0.551833 -1.149099 0.000000
-0.000000 -1.149099 0.000000
0.551833 -1.149099 0.000000
1.103666 -1.149099 0.000000
1.655499 -1.149099 0.000000
2.207332 -1.149099 0.000000
2.759165 -1.149099 0.000000
-2.759165 -0.766066 0.000000
-2.207332 -0.766066 0.000000
-1.655499 -0.766066 0.000000
-1.103666 -0.766066 0.000000
-0.551833 -0.766066 0.000000
-0.000000 -0.766066 0.000000
0.551833 -0.766066 0.000000
1.103666 -0.766066 0.000000
1.655499 -0.766066 0.000000
2.207332 -0.766066 0.000000
2.759165 -0.766066 0.000000
-2.759165 -0.383033 0.000000
-2.207332 -0.383033 0.000000
-1.655499 -0.383033 0.000000
-1.103666 -0.383033 0.000000
-0.551833 -0.383033 0.000000
-0.000000 -0.383033 0.000000
0.551833 -0.383033 0.000000
1.103666 -0.383033 0.000000
1.655499 -0.383033 0.000000
2.207332 -0.383033 0.000000
2.759165 -0.383033 0.000000
-2.759165 -0.000000 0.000000
-2.207332 -0.000000 0.000000
-1.655499 -0.000000 0.000000
-1.103666 -0.000000 0.000000
-0.551833 -0.000000 0.000000
-0.000000 -0.000000 0.000000
0.551833 -0.000000 0.000000
1.103666 -0.000000 0.000000
1.655499 -0.000000 0.000000
2.207332 -0.000000 0.000000
2.759165 -0.000000 0.000000
-2.759165 0.383033 0.000000
-2.207332 0.383033 0.000000
-1.655499 0.383033 0.000000
-1.103666 0.383033 0.000000
-0.551833 0.383033 0.000000
-0.000000 0.383033 0.000000
0.551833 0.383033 0.000000
1.103666 0.383033 0.000000
1.655499 0.383033 0.000000
2.207332 0.383033 0.000000
2.759165 0.383033 0.000000
-2.759165 0.766066 0.000000
-2.207332 0.766066 0.000000
-1.655499 0.766066 0.000000
-1.103666 0.766066 0.000000
-0.551833 0.766066 0.000000
-0.000000 0.766066 0.000000
0.551833 0.766066 0.000000
1.103666 0.766066 0.000000
1.655499 0.766066 0.000000
2.207332 0.766066 0.000000
2.759165 0.766066 0.000000
-2.759165 1.149099 0.000000
-2.207332 1.149099 0.000000
-1.655499 1.149099 0.000000
-1.103666 1.149099 0.000000
-0.551833 1.149099 0.000000
-0.000000 1.149099 0.000000
0.551833 1.149099 0.000000
1.103666 1.149099 0.000000
1.655499 1.149099 0.000000
2.207332 1.149099 0.000000
2.759165 1.149099 0.000000
-2.759165 1.532131 0.000000
-2.207332 1.532131 0.000000
-1.655499 1.532131 0.000000
-1.103666 1.532131 0.000000
-0.551833 1.532131 0.000000
-0.000000 1.532131 0.000000
0.551833 1.532131 0.000000
1.103666 1.532131 0.000000
1.655499 1.532131 0.000000
2.207332 1.532131 0.000000
2.759165 1.532131 0.000000
-2.759165 1.915164 0.000000
-2.207332 1.915164 0.000000
-1.655499 1.915164 0.000000
-1.103666 1.915164 0.000000
-0.551833 1.915164 0.000000
-0.000000 1.915164 0.000000
0.551833 1.915164 0.000000
1.103666 1.915164 0.000000
1.655499 1.915164 0.000000
2.207332 1.915164 0.000000
2.759165 1.915164 0.000000
-2.759165 -1.915164 0.059912
-2.207332 -1.915164 0.059912
-1.655499 -1.915164 0.059912
-1.103666 -1.915164 0.059912
-0.551833 -1.915164 0.059912
-0.000000 -1.915164 0.059912
0.551833 -1.915164 0.059912
1.103666 -1.915164 0.059912
1.655499 -1.915164 0.059912
2.207332 -1.915164 0.059912
2.759165 -1.915164 0.059912
-2.759165 -1.532131 0.059912
-2.207332 -1.532131 0.059912
-1.655499 -1.532131 0.059912
-1.103666 -1.532131 0.059912
-0.551833 -1.532131 0.059912
-0.000000 -1.532131 0.059912
0.551833 -1.532131 0.059912
1.103666 -1.532131 0.059912
1.655499 -1.532131 0.059912
2.207332 -1.532131 0.059912
2.759165 -1.532131 0.059912
-2.759165 -1.149099 0.059912
-2.207332 -1.149099 0.059912
-1.655499 -1.149099 0.059912
-1.103666 -1.149099 0.059912
-0.551833 -1.149099 0.059912
-0.000000 -1.149099 0.059912
0.551833 -1.149099 0.059912
1.103666 -1.149099 0.059912
1.655499 -1.149099 0.059912
2.207332 -1.149099 0.059912
2.759165 -1.149099 0.059912
-2.759165 -0.766066 0.059912
-2.207332 -0.766066 0.059912
-1.655499 -0.766066 0.059912
-1.103666 -0.766066 0.059912
-0.551833 -0.766066 0.059912
-0.000000 -0.766066 0.059912
0.551833 -0.766066 0.059912
1.103666 -0.766066 0.059912
1.655499 -0.766066 0.059912
2.207332 -0.766066 0.059912
2.759165 -0.766066 0.059912
-2.759165 -0.383033 0.059912
-2.207332 -0.383033 0.059912
-1.655499 -0.383033 0.059912
-1.103666 -0.383033 0.059912
-0.551833 -0.383033 0.059912
-0.000000 -0.383033 0.059912
0.551833 -0.383033 0.059912
1.103666 -0.383033 0.059912
1.655499 -0.383033 0.059912
2.207332 -0.383033 0.059912
2.759165 -0.383033 0.059912
-2.759165 -0.000000 0.059912
-2.207332 -0.000000 0.059912
-1.655499 -0.000000 0.059912
1.655499 -0.000000 0.059912
2.207332 -0.000000 0.059912
2.759165 -0.000000 0.059912
-2.759165 0.383033 0.059912
-2.207332 0.383033 0.059912
-1.655499 0.383033 0.059912
-1.103666 0.383033 0.059912
-0.551833 0.383033 0.059912
-0.000000 0.383033 0.059912
0.551833 0.383033 0.059912
1.103666 0.383033 0.059912
1.655499 0.383033 0.059912
2.207332 0.383033 0.059912
2.759165 0.383033 0.059912
-2.759165 0.766066 0.059912
-2.207332 0.766066 0.059912
-1.655499 0.766066 0.059912
-1.103666 0.766066 0.059912
-0.551833 0.766066 0.059912
-0.000000 0.766066 0.059912
0.551833 0.766066 0.059912
1.103666 0.766066 0.059912
1.655499 0.766066 0.059912
2.207332 0.766066 0.059912
2.759165 0.766066 0.059912
-2.759165 1.149099 0.059912
-2.207332 1.149099 0.059912
-1.655499 1.149099 0.059912
-1.103666 1.149099 0.059912
-0.551833 1.149099 0.059912
-0.000000 1.149099 0.059912
0.551833 1.149099 0.059912
1.103666 1.149099 0.059912
1.655499 1.149099 0.059912
2.207332 1.149099 0.059912
2.759165 1.149099 0.059912
-2.759165 1.532131 0.059912
-2.207332 1.532131 0.059912
-1.655499 1.532131 0.059912
-1.103666 1.532131 0.059912
-0.551833 1.532131 0.059912
-0.000000 1.532131 0.059912
0.551833 1.532131 0.059912
1.103666 1.532131 0.059912
1.655499 1.532131 0.059912
2.207332 1.532131 0.059912
2.759165 1.532131 0.059912
-2.759165 1.915164 0.059912
-2.207332 1.915164 0.059912
-1.655499 1.915164 0.059912
-1.103666 1.915164 0.059912
-0.551833 1.915164 0.059912
-0.000000 1.915164 0.059912
0.551833 1.915164 0.059912
1.103666 1.915164 0.059912
1.655499 1.915164 0.059912
2.207332 1.915164 0.059912
2.759165 1.915164 0.059912
</float_array>
          <technique_common>
            <accessor source="#Box001-POSITION-array" count="237" stride="3">
              <param name="X" type="float"/>
              <param name="Y" type="float"/>
              <param name="Z" type="float"/>
            </accessor>
          </technique_common>
        </source>
        <source id="Box001-Normal0">
          <float_array id="Box001-Normal0-array" count="3996">
0.000000 0.000000 -1.000000
0.000000 0.000000 -1.000000
0.000000 0.000000 -1.000000
0.000000 0.000000 -1.000000
0.000000 0.000000 -1.000000
0.000000 0.000000 -1.000000
0.000000 0.000000 -1.000000
0.000000 0.000000 -1.000000
0.000000 0.000000 -1.000000
0.000000 0.000000 -1.000000
0.000000 0.000000 -1.000000
0.000000 0.000000 -1.000000
0.000000 0.000000 -1.000000
0.000000 0.000000 -1.000000
0.000000 0.000000 -1.000000
0.000000 0.000000 -1.000000
0.000000 0.000000 -1.000000
0.000000 0.000000 -1.000000
0.000000 0.000000 -1.000000
0.000000 0.000000 -1.000000
0.000000 0.000000 -1.000000
0.000000 0.000000 -1.000000
0.000000 0.000000 -1.000000
0.000000 0.000000 -1.000000
0.000000 0.000000 -1.000000
0.000000 0.000000 -1.000000
0.000000 0.000000 -1.000000
0.000000 0.000000 -1.000000
0.000000 0.000000 -1.000000
0.000000 0.000000 -1.000000
0.000000 0.000000 -1.000000
0.000000 0.000000 -1.000000
0.000000 0.000000 -1.000000
0.000000 0.000000 -1.000000
0.000000 0.000000 -1.000000
0.000000 0.000000 -1.000000
0.000000 0.000000 -1.000000
0.000000 0.000000 -1.000000
0.000000 0.000000 -1.000000
0.000000 0.000000 -1.000000
0.000000 0.000000 -1.000000
0.000000 0.000000 -1.000000
0.000000 0.000000 -1.000000
0.000000 0.000000 -1.000000
0.000000 0.000000 -1.000000
0.000000 0.000000 -1.000000
0.000000 0.000000 -1.000000
0.000000 0.000000 -1.000000
0.000000 0.000000 -1.000000
0.000000 0.000000 -1.000000
0.000000 0.000000 -1.000000
0.000000 0.000000 -1.000000
0.000000 0.000000 -1.000000
0.000000 0.000000 -1.000000
0.000000 0.000000 -1.000000
0.000000 0.000000 -1.000000
0.000000 0.000000 -1.000000
0.000000 0.000000 -1.000000
0.000000 0.000000 -1.000000
0.000000 0.000000 -1.000000
0.000000 0.000000 -1.000000
0.000000 0.000000 -1.000000
0.000000 0.000000 -1.000000
0.000000 0.000000 -1.000000
0.000000 0.000000 -1.000000
0.000000 0.000000 -1.000000
0.000000 0.000000 -1.000000
0.000000 0.000000 -1.000000
0.000000 0.000000 -1.000000
0.000000 0.000000 -1.000000
0.000000 0.000000 -1.000000
0.000000 0.000000 -1.000000
0.000000 0.000000 -1.000000
0.000000 0.000000 -1.000000
0.000000 0.000000 -1.000000
0.000000 0.000000 -1.000000
0.000000 0.000000 -1.000000
0.000000 0.000000 -1.000000
0.000000 0.000000 -1.000000
0.000000 0.000000 -1.000000
0.000000 0.000000 -1.000000
0.000000 0.000000 -1.000000
0.000000 0.000000 -1.000000
0.000000 0.000000 -1.000000
0.000000 0.000000 -1.000000
0.000000 0.000000 -1.000000
0.000000 0.000000 -1.000000
0.000000 0.000000 -1.000000
0.000000 0.000000 -1.000000
0.000000 0.000000 -1.000000
0.000000 0.000000 -1.000000
0.000000 0.000000 -1.000000
0.000000 0.000000 -1.000000
0.000000 0.000000 -1.000000
0.000000 0.000000 -1.000000
0.000000 0.000000 -1.000000
0.000000 0.000000 -1.000000
0.000000 0.000000 -1.000000
0.000000 0.000000 -1.000000
0.000000 0.000000 -1.000000
0.000000 0.000000 -1.000000
0.000000 0.000000 -1.000000
0.000000 0.000000 -1.000000
0.000000 0.000000 -1.000000
0.000000 0.000000 -1.000000
0.000000 0.000000 -1.000000
0.000000 0.000000 -1.000000
0.000000 0.000000 -1.000000
0.000000 0.000000 -1.000000
0.000000 0.000000 -1.000000
0.000000 0.000000 -1.000000
0.000000 0.000000 -1.000000
0.000000 0.000000 -1.000000
0.000000 0.000000 -1.000000
0.000000 0.000000 -1.000000
0.000000 0.000000 -1.000000
0.000000 0.000000 -1.000000
0.000000 0.000000 -1.000000
0.000000 0.000000 -1.000000
0.000000 0.000000 -1.000000
0.000000 0.000000 -1.000000
0.000000 0.000000 -1.000000
0.000000 0.000000 -1.000000
0.000000 0.000000 -1.000000
0.000000 0.000000 -1.000000
0.000000 0.000000 -1.000000
0.000000 0.000000 -1.000000
0.000000 0.000000 -1.000000
0.000000 0.000000 -1.000000
0.000000 0.000000 -1.000000
0.000000 0.000000 -1.000000
0.000000 0.000000 -1.000000
0.000000 0.000000 -1.000000
0.000000 0.000000 -1.000000
0.000000 0.000000 -1.000000
0.000000 0.000000 -1.000000
0.000000 0.000000 -1.000000
0.000000 0.000000 -1.000000
0.000000 0.000000 -1.000000
0.000000 0.000000 -1.000000
0.000000 0.000000 -1.000000
0.000000 0.000000 -1.000000
0.000000 0.000000 -1.000000
0.000000 0.000000 -1.000000
0.000000 0.000000 -1.000000
0.000000 0.000000 -1.000000
0.000000 0.000000 -1.000000
0.000000 0.000000 -1.000000
0.000000 0.000000 -1.000000
0.000000 0.000000 -1.000000
0.000000 0.000000 -1.000000
0.000000 0.000000 -1.000000
0.000000 0.000000 -1.000000
0.000000 0.000000 -1.000000
0.000000 0.000000 -1.000000
0.000000 0.000000 -1.000000
0.000000 0.000000 -1.000000
0.000000 0.000000 -1.000000
0.000000 0.000000 -1.000000
0.000000 0.000000 -1.000000
0.000000 0.000000 -1.000000
0.000000 0.000000 -1.000000
0.000000 0.000000 -1.000000
0.000000 0.000000 -1.000000
0.000000 0.000000 -1.000000
0.000000 0.000000 -1.000000
0.000000 0.000000 -1.000000
0.000000 0.000000 -1.000000
0.000000 0.000000 -1.000000
0.000000 0.000000 -1.000000
0.000000 0.000000 -1.000000
0.000000 0.000000 -1.000000
0.000000 0.000000 -1.000000
0.000000 0.000000 -1.000000
0.000000 0.000000 -1.000000
0.000000 0.000000 -1.000000
0.000000 0.000000 -1.000000
0.000000 0.000000 -1.000000
0.000000 0.000000 -1.000000
0.000000 0.000000 -1.000000
0.000000 0.000000 -1.000000
0.000000 0.000000 -1.000000
0.000000 0.000000 -1.000000
0.000000 0.000000 -1.000000
0.000000 0.000000 -1.000000
0.000000 0.000000 -1.000000
0.000000 0.000000 -1.000000
0.000000 0.000000 -1.000000
0.000000 0.000000 -1.000000
0.000000 0.000000 -1.000000
0.000000 0.000000 -1.000000
0.000000 0.000000 -1.000000
0.000000 0.000000 -1.000000
0.000000 0.000000 -1.000000
0.000000 0.000000 -1.000000
0.000000 0.000000 -1.000000
0.000000 0.000000 -1.000000
0.000000 0.000000 -1.000000
0.000000 0.000000 -1.000000
0.000000 0.000000 -1.000000
0.000000 0.000000 -1.000000
0.000000 0.000000 -1.000000
0.000000 0.000000 -1.000000
0.000000 0.000000 -1.000000
0.000000 0.000000 -1.000000
0.000000 0.000000 -1.000000
0.000000 0.000000 -1.000000
0.000000 0.000000 -1.000000
0.000000 0.000000 -1.000000
0.000000 0.000000 -1.000000
0.000000 0.000000 -1.000000
0.000000 0.000000 -1.000000
0.000000 0.000000 -1.000000
0.000000 0.000000 -1.000000
0.000000 0.000000 -1.000000
0.000000 0.000000 -1.000000
0.000000 0.000000 -1.000000
0.000000 0.000000 -1.000000
0.000000 0.000000 -1.000000
0.000000 0.000000 -1.000000
0.000000 0.000000 -1.000000
0.000000 0.000000 -1.000000
0.000000 0.000000 -1.000000
0.000000 0.000000 -1.000000
0.000000 0.000000 -1.000000
0.000000 0.000000 -1.000000
0.000000 0.000000 -1.000000
0.000000 0.000000 -1.000000
0.000000 0.000000 -1.000000
0.000000 0.000000 -1.000000
0.000000 0.000000 -1.000000
0.000000 0.000000 -1.000000
0.000000 0.000000 -1.000000
0.000000 0.000000 -1.000000
0.000000 0.000000 -1.000000
0.000000 0.000000 -1.000000
0.000000 0.000000 -1.000000
0.000000 0.000000 -1.000000
0.000000 0.000000 -1.000000
0.000000 0.000000 -1.000000
0.000000 0.000000 -1.000000
0.000000 0.000000 -1.000000
0.000000 0.000000 -1.000000
0.000000 0.000000 -1.000000
0.000000 0.000000 -1.000000
0.000000 0.000000 -1.000000
0.000000 0.000000 -1.000000
0.000000 0.000000 -1.000000
0.000000 0.000000 -1.000000
0.000000 0.000000 -1.000000
0.000000 0.000000 -1.000000
0.000000 0.000000 -1.000000
0.000000 0.000000 -1.000000
0.000000 0.000000 -1.000000
0.000000 0.000000 -1.000000
0.000000 0.000000 -1.000000
0.000000 0.000000 -1.000000
0.000000 0.000000 -1.000000
0.000000 0.000000 -1.000000
0.000000 0.000000 -1.000000
0.000000 0.000000 -1.000000
0.000000 0.000000 -1.000000
0.000000 0.000000 -1.000000
0.000000 0.000000 -1.000000
0.000000 0.000000 -1.000000
0.000000 0.000000 -1.000000
0.000000 0.000000 -1.000000
0.000000 0.000000 -1.000000
0.000000 0.000000 -1.000000
0.000000 0.000000 -1.000000
0.000000 0.000000 -1.000000
0.000000 0.000000 -1.000000
0.000000 0.000000 -1.000000
0.000000 0.000000 -1.000000
0.000000 0.000000 -1.000000
0.000000 0.000000 -1.000000
0.000000 0.000000 -1.000000
0.000000 0.000000 -1.000000
0.000000 0.000000 -1.000000
0.000000 0.000000 -1.000000
0.000000 0.000000 -1.000000
0.000000 0.000000 -1.000000
0.000000 0.000000 -1.000000
0.000000 0.000000 -1.000000
0.000000 0.000000 -1.000000
0.000000 0.000000 -1.000000
0.000000 0.000000 -1.000000
0.000000 0.000000 -1.000000
0.000000 0.000000 -1.000000
0.000000 0.000000 -1.000000
0.000000 0.000000 -1.000000
0.000000 0.000000 -1.000000
0.000000 0.000000 -1.000000
0.000000 0.000000 -1.000000
0.000000 0.000000 -1.000000
0.000000 0.000000 -1.000000
0.000000 0.000000 -1.000000
0.000000 0.000000 -1.000000
0.000000 0.000000 -1.000000
0.000000 0.000000 -1.000000
0.000000 0.000000 -1.000000
0.000000 0.000000 -1.000000
0.000000 0.000000 -1.000000
0.000000 0.000000 -1.000000
0.000000 0.000000 -1.000000
0.000000 0.000000 -1.000000
0.000000 0.000000 -1.000000
0.000000 0.000000 -1.000000
0.000000 0.000000 -1.000000
0.000000 0.000000 -1.000000
0.000000 0.000000 -1.000000
0.000000 0.000000 -1.000000
0.000000 0.000000 -1.000000
0.000000 0.000000 -1.000000
0.000000 0.000000 -1.000000
0.000000 0.000000 -1.000000
0.000000 0.000000 -1.000000
0.000000 0.000000 -1.000000
0.000000 0.000000 -1.000000
0.000000 0.000000 -1.000000
0.000000 0.000000 -1.000000
0.000000 0.000000 -1.000000
0.000000 0.000000 -1.000000
0.000000 0.000000 -1.000000
0.000000 0.000000 -1.000000
0.000000 0.000000 -1.000000
0.000000 0.000000 -1.000000
0.000000 0.000000 -1.000000
0.000000 0.000000 -1.000000
0.000000 0.000000 -1.000000
0.000000 0.000000 -1.000000
0.000000 0.000000 -1.000000
0.000000 0.000000 -1.000000
0.000000 0.000000 -1.000000
0.000000 0.000000 -1.000000
0.000000 0.000000 -1.000000
0.000000 0.000000 -1.000000
0.000000 0.000000 -1.000000
0.000000 0.000000 -1.000000
0.000000 0.000000 -1.000000
0.000000 0.000000 -1.000000
0.000000 0.000000 -1.000000
0.000000 0.000000 -1.000000
0.000000 0.000000 -1.000000
0.000000 0.000000 -1.000000
0.000000 0.000000 -1.000000
0.000000 0.000000 -1.000000
0.000000 0.000000 -1.000000
0.000000 0.000000 -1.000000
0.000000 0.000000 -1.000000
0.000000 0.000000 -1.000000
0.000000 0.000000 -1.000000
0.000000 0.000000 -1.000000
0.000000 0.000000 -1.000000
0.000000 0.000000 -1.000000
0.000000 0.000000 -1.000000
0.000000 0.000000 -1.000000
0.000000 0.000000 -1.000000
0.000000 0.000000 -1.000000
0.000000 0.000000 -1.000000
0.000000 0.000000 -1.000000
0.000000 0.000000 -1.000000
0.000000 0.000000 -1.000000
0.000000 0.000000 -1.000000
0.000000 0.000000 -1.000000
0.000000 0.000000 -1.000000
0.000000 0.000000 -1.000000
0.000000 0.000000 -1.000000
0.000000 0.000000 -1.000000
0.000000 0.000000 -1.000000
0.000000 0.000000 -1.000000
0.000000 0.000000 -1.000000
0.000000 0.000000 -1.000000
0.000000 0.000000 -1.000000
0.000000 0.000000 -1.000000
0.000000 0.000000 -1.000000
0.000000 0.000000 -1.000000
0.000000 0.000000 -1.000000
0.000000 0.000000 -1.000000
0.000000 0.000000 -1.000000
0.000000 0.000000 -1.000000
0.000000 0.000000 -1.000000
0.000000 0.000000 -1.000000
0.000000 0.000000 -1.000000
0.000000 0.000000 -1.000000
0.000000 0.000000 -1.000000
0.000000 0.000000 -1.000000
0.000000 0.000000 -1.000000
0.000000 0.000000 -1.000000
0.000000 0.000000 -1.000000
0.000000 0.000000 -1.000000
0.000000 0.000000 -1.000000
0.000000 0.000000 -1.000000
0.000000 0.000000 -1.000000
0.000000 0.000000 -1.000000
0.000000 0.000000 -1.000000
0.000000 0.000000 -1.000000
0.000000 0.000000 -1.000000
0.000000 0.000000 -1.000000
0.000000 0.000000 -1.000000
0.000000 0.000000 -1.000000
0.000000 0.000000 -1.000000
0.000000 0.000000 -1.000000
0.000000 0.000000 -1.000000
0.000000 0.000000 -1.000000
0.000000 0.000000 -1.000000
0.000000 0.000000 -1.000000
0.000000 0.000000 -1.000000
0.000000 0.000000 -1.000000
0.000000 0.000000 -1.000000
0.000000 0.000000 -1.000000
0.000000 0.000000 -1.000000
0.000000 0.000000 -1.000000
0.000000 0.000000 -1.000000
0.000000 0.000000 -1.000000
0.000000 0.000000 -1.000000
0.000000 0.000000 -1.000000
0.000000 0.000000 -1.000000
0.000000 0.000000 -1.000000
0.000000 0.000000 -1.000000
0.000000 0.000000 -1.000000
0.000000 0.000000 -1.000000
0.000000 0.000000 -1.000000
0.000000 0.000000 -1.000000
0.000000 0.000000 -1.000000
0.000000 0.000000 -1.000000
0.000000 0.000000 -1.000000
0.000000 0.000000 -1.000000
0.000000 0.000000 -1.000000
0.000000 0.000000 -1.000000
0.000000 0.000000 -1.000000
0.000000 0.000000 -1.000000
0.000000 0.000000 -1.000000
0.000000 0.000000 -1.000000
0.000000 0.000000 -1.000000
0.000000 0.000000 -1.000000
0.000000 0.000000 -1.000000
0.000000 0.000000 -1.000000
0.000000 0.000000 -1.000000
0.000000 0.000000 -1.000000
0.000000 0.000000 -1.000000
0.000000 0.000000 -1.000000
0.000000 0.000000 -1.000000
0.000000 0.000000 -1.000000
0.000000 0.000000 -1.000000
0.000000 0.000000 -1.000000
0.000000 0.000000 -1.000000
0.000000 0.000000 -1.000000
0.000000 0.000000 -1.000000
0.000000 0.000000 -1.000000
0.000000 0.000000 -1.000000
0.000000 0.000000 -1.000000
0.000000 0.000000 -1.000000
0.000000 0.000000 -1.000000
0.000000 0.000000 -1.000000
0.000000 0.000000 -1.000000
0.000000 0.000000 -1.000000
0.000000 0.000000 -1.000000
0.000000 0.000000 -1.000000
0.000000 0.000000 -1.000000
0.000000 0.000000 -1.000000
0.000000 0.000000 -1.000000
0.000000 0.000000 -1.000000
0.000000 0.000000 -1.000000
0.000000 0.000000 -1.000000
0.000000 0.000000 -1.000000
0.000000 0.000000 -1.000000
0.000000 0.000000 -1.000000
0.000000 0.000000 -1.000000
0.000000 0.000000 -1.000000
0.000000 0.000000 -1.000000
0.000000 0.000000 -1.000000
0.000000 0.000000 -1.000000
0.000000 0.000000 -1.000000
0.000000 0.000000 -1.000000
0.000000 0.000000 -1.000000
0.000000 0.000000 -1.000000
0.000000 0.000000 -1.000000
0.000000 0.000000 -1.000000
0.000000 0.000000 -1.000000
0.000000 0.000000 -1.000000
0.000000 0.000000 -1.000000
0.000000 0.000000 -1.000000
0.000000 0.000000 -1.000000
0.000000 0.000000 -1.000000
0.000000 0.000000 -1.000000
0.000000 0.000000 -1.000000
0.000000 0.000000 -1.000000
0.000000 0.000000 -1.000000
0.000000 0.000000 -1.000000
0.000000 0.000000 -1.000000
0.000000 0.000000 -1.000000
0.000000 0.000000 -1.000000
0.000000 0.000000 -1.000000
0.000000 0.000000 -1.000000
0.000000 0.000000 -1.000000
0.000000 0.000000 -1.000000
0.000000 0.000000 -1.000000
0.000000 0.000000 -1.000000
0.000000 0.000000 -1.000000
0.000000 0.000000 -1.000000
0.000000 0.000000 -1.000000
0.000000 0.000000 -1.000000
0.000000 0.000000 -1.000000
0.000000 0.000000 -1.000000
0.000000 0.000000 -1.000000
0.000000 0.000000 -1.000000
0.000000 0.000000 -1.000000
0.000000 0.000000 -1.000000
0.000000 0.000000 -1.000000
0.000000 0.000000 -1.000000
0.000000 0.000000 -1.000000
0.000000 0.000000 -1.000000
0.000000 0.000000 -1.000000
0.000000 0.000000 -1.000000
0.000000 0.000000 -1.000000
0.000000 0.000000 -1.000000
0.000000 0.000000 -1.000000
0.000000 0.000000 -1.000000
0.000000 0.000000 -1.000000
0.000000 0.000000 -1.000000
0.000000 0.000000 -1.000000
0.000000 0.000000 -1.000000
0.000000 0.000000 -1.000000
0.000000 0.000000 -1.000000
0.000000 0.000000 -1.000000
0.000000 0.000000 -1.000000
0.000000 0.000000 -1.000000
0.000000 0.000000 -1.000000
0.000000 0.000000 -1.000000
0.000000 0.000000 -1.000000
0.000000 0.000000 -1.000000
0.000000 0.000000 -1.000000
0.000000 0.000000 -1.000000
0.000000 0.000000 -1.000000
0.000000 0.000000 -1.000000
0.000000 0.000000 -1.000000
0.000000 0.000000 -1.000000
0.000000 0.000000 -1.000000
0.000000 0.000000 -1.000000
0.000000 0.000000 -1.000000
0.000000 0.000000 -1.000000
0.000000 0.000000 -1.000000
0.000000 0.000000 -1.000000
0.000000 0.000000 -1.000000
0.000000 0.000000 -1.000000
0.000000 0.000000 -1.000000
0.000000 0.000000 -1.000000
0.000000 0.000000 -1.000000
0.000000 0.000000 -1.000000
0.000000 0.000000 -1.000000
0.000000 0.000000 -1.000000
0.000000 0.000000 -1.000000
0.000000 0.000000 -1.000000
0.000000 0.000000 -1.000000
0.000000 0.000000 -1.000000
0.000000 0.000000 -1.000000
0.000000 0.000000 -1.000000
0.000000 0.000000 -1.000000
0.000000 0.000000 -1.000000
0.000000 0.000000 -1.000000
0.000000 0.000000 -1.000000
0.000000 0.000000 -1.000000
0.000000 0.000000 -1.000000
0.000000 0.000000 -1.000000
0.000000 0.000000 -1.000000
0.000000 0.000000 -1.000000
0.000000 0.000000 -1.000000
0.000000 0.000000 -1.000000
0.000000 0.000000 -1.000000
0.000000 0.000000 -1.000000
0.000000 0.000000 -1.000000
0.000000 0.000000 -1.000000
0.000000 0.000000 -1.000000
0.000000 0.000000 -1.000000
0.000000 0.000000 -1.000000
0.000000 0.000000 -1.000000
0.000000 0.000000 -1.000000
0.000000 0.000000 -1.000000
0.000000 0.000000 -1.000000
0.000000 0.000000 -1.000000
0.000000 0.000000 -1.000000
0.000000 0.000000 -1.000000
0.000000 0.000000 -1.000000
0.000000 0.000000 -1.000000
0.000000 0.000000 -1.000000
0.000000 0.000000 -1.000000
0.000000 0.000000 -1.000000
0.000000 0.000000 -1.000000
0.000000 0.000000 -1.000000
0.000000 0.000000 -1.000000
0.000000 0.000000 -1.000000
0.000000 0.000000 -1.000000
0.000000 0.000000 -1.000000
0.000000 0.000000 -1.000000
0.000000 0.000000 -1.000000
0.000000 0.000000 -1.000000
0.000000 0.000000 -1.000000
0.000000 0.000000 -1.000000
0.000000 0.000000 -1.000000
0.000000 0.000000 1.000000
0.000000 0.000000 1.000000
0.000000 0.000000 1.000000
0.000000 0.000000 1.000000
0.000000 0.000000 1.000000
0.000000 0.000000 1.000000
0.000000 0.000000 1.000000
0.000000 0.000000 1.000000
0.000000 0.000000 1.000000
0.000000 0.000000 1.000000
0.000000 0.000000 1.000000
0.000000 0.000000 1.000000
0.000000 0.000000 1.000000
0.000000 0.000000 1.000000
0.000000 0.000000 1.000000
0.000000 0.000000 1.000000
0.000000 0.000000 1.000000
0.000000 0.000000 1.000000
0.000000 0.000000 1.000000
0.000000 0.000000 1.000000
0.000000 0.000000 1.000000
0.000000 0.000000 1.000000
0.000000 0.000000 1.000000
0.000000 0.000000 1.000000
0.000000 0.000000 1.000000
0.000000 0.000000 1.000000
0.000000 0.000000 1.000000
0.000000 0.000000 1.000000
0.000000 0.000000 1.000000
0.000000 0.000000 1.000000
0.000000 0.000000 1.000000
0.000000 0.000000 1.000000
0.000000 0.000000 1.000000
0.000000 0.000000 1.000000
0.000000 0.000000 1.000000
0.000000 0.000000 1.000000
0.000000 0.000000 1.000000
0.000000 0.000000 1.000000
0.000000 0.000000 1.000000
0.000000 0.000000 1.000000
0.000000 0.000000 1.000000
0.000000 0.000000 1.000000
0.000000 0.000000 1.000000
0.000000 0.000000 1.000000
0.000000 0.000000 1.000000
0.000000 0.000000 1.000000
0.000000 0.000000 1.000000
0.000000 0.000000 1.000000
0.000000 0.000000 1.000000
0.000000 0.000000 1.000000
0.000000 0.000000 1.000000
0.000000 0.000000 1.000000
0.000000 0.000000 1.000000
0.000000 0.000000 1.000000
0.000000 0.000000 1.000000
0.000000 0.000000 1.000000
0.000000 0.000000 1.000000
0.000000 0.000000 1.000000
0.000000 0.000000 1.000000
0.000000 0.000000 1.000000
0.000000 0.000000 1.000000
0.000000 0.000000 1.000000
0.000000 0.000000 1.000000
0.000000 0.000000 1.000000
0.000000 0.000000 1.000000
0.000000 0.000000 1.000000
0.000000 0.000000 1.000000
0.000000 0.000000 1.000000
0.000000 0.000000 1.000000
0.000000 0.000000 1.000000
0.000000 0.000000 1.000000
0.000000 0.000000 1.000000
0.000000 0.000000 1.000000
0.000000 0.000000 1.000000
0.000000 0.000000 1.000000
0.000000 0.000000 1.000000
0.000000 0.000000 1.000000
0.000000 0.000000 1.000000
0.000000 0.000000 1.000000
0.000000 0.000000 1.000000
0.000000 0.000000 1.000000
0.000000 0.000000 1.000000
0.000000 0.000000 1.000000
0.000000 0.000000 1.000000
0.000000 0.000000 1.000000
0.000000 0.000000 1.000000
0.000000 0.000000 1.000000
0.000000 0.000000 1.000000
0.000000 0.000000 1.000000
0.000000 0.000000 1.000000
0.000000 0.000000 1.000000
0.000000 0.000000 1.000000
0.000000 0.000000 1.000000
0.000000 0.000000 1.000000
0.000000 0.000000 1.000000
0.000000 0.000000 1.000000
0.000000 0.000000 1.000000
0.000000 0.000000 1.000000
0.000000 0.000000 1.000000
0.000000 0.000000 1.000000
0.000000 0.000000 1.000000
0.000000 0.000000 1.000000
0.000000 0.000000 1.000000
0.000000 0.000000 1.000000
0.000000 0.000000 1.000000
0.000000 0.000000 1.000000
0.000000 0.000000 1.000000
0.000000 0.000000 1.000000
0.000000 0.000000 1.000000
0.000000 0.000000 1.000000
0.000000 0.000000 1.000000
0.000000 0.000000 1.000000
0.000000 0.000000 1.000000
0.000000 0.000000 1.000000
0.000000 0.000000 1.000000
0.000000 0.000000 1.000000
0.000000 0.000000 1.000000
0.000000 0.000000 1.000000
0.000000 0.000000 1.000000
0.000000 0.000000 1.000000
0.000000 0.000000 1.000000
0.000000 0.000000 1.000000
0.000000 0.000000 1.000000
0.000000 0.000000 1.000000
0.000000 0.000000 1.000000
0.000000 0.000000 1.000000
0.000000 0.000000 1.000000
0.000000 0.000000 1.000000
0.000000 0.000000 1.000000
0.000000 0.000000 1.000000
0.000000 0.000000 1.000000
0.000000 0.000000 1.000000
0.000000 0.000000 1.000000
0.000000 0.000000 1.000000
0.000000 0.000000 1.000000
0.000000 0.000000 1.000000
0.000000 0.000000 1.000000
0.000000 0.000000 1.000000
0.000000 0.000000 1.000000
0.000000 0.000000 1.000000
0.000000 0.000000 1.000000
0.000000 0.000000 1.000000
0.000000 0.000000 1.000000
0.000000 0.000000 1.000000
0.000000 0.000000 1.000000
0.000000 0.000000 1.000000
0.000000 0.000000 1.000000
0.000000 0.000000 1.000000
0.000000 0.000000 1.000000
0.000000 0.000000 1.000000
0.000000 0.000000 1.000000
0.000000 0.000000 1.000000
0.000000 0.000000 1.000000
0.000000 0.000000 1.000000
0.000000 0.000000 1.000000
0.000000 0.000000 1.000000
0.000000 0.000000 1.000000
0.000000 0.000000 1.000000
0.000000 0.000000 1.000000
0.000000 0.000000 1.000000
0.000000 0.000000 1.000000
0.000000 0.000000 1.000000
0.000000 0.000000 1.000000
0.000000 0.000000 1.000000
0.000000 0.000000 1.000000
0.000000 0.000000 1.000000
0.000000 0.000000 1.000000
0.000000 0.000000 1.000000
0.000000 0.000000 1.000000
0.000000 0.000000 1.000000
0.000000 0.000000 1.000000
0.000000 0.000000 1.000000
0.000000 0.000000 1.000000
0.000000 0.000000 1.000000
0.000000 0.000000 1.000000
0.000000 0.000000 1.000000
0.000000 0.000000 1.000000
0.000000 0.000000 1.000000
0.000000 0.000000 1.000000
0.000000 0.000000 1.000000
0.000000 0.000000 1.000000
0.000000 0.000000 1.000000
0.000000 0.000000 1.000000
0.000000 0.000000 1.000000
0.000000 0.000000 1.000000
0.000000 0.000000 1.000000
0.000000 0.000000 1.000000
0.000000 0.000000 1.000000
0.000000 0.000000 1.000000
0.000000 0.000000 1.000000
0.000000 0.000000 1.000000
0.000000 0.000000 1.000000
0.000000 0.000000 1.000000
0.000000 0.000000 1.000000
0.000000 0.000000 1.000000
0.000000 0.000000 1.000000
0.000000 0.000000 1.000000
0.000000 0.000000 1.000000
0.000000 0.000000 1.000000
0.000000 0.000000 1.000000
0.000000 0.000000 1.000000
0.000000 0.000000 1.000000
0.000000 0.000000 1.000000
0.000000 0.000000 1.000000
0.000000 0.000000 1.000000
0.000000 0.000000 1.000000
0.000000 0.000000 1.000000
0.000000 0.000000 1.000000
0.000000 0.000000 1.000000
0.000000 0.000000 1.000000
0.000000 0.000000 1.000000
0.000000 0.000000 1.000000
0.000000 0.000000 1.000000
0.000000 0.000000 1.000000
0.000000 0.000000 1.000000
0.000000 0.000000 1.000000
0.000000 0.000000 1.000000
0.000000 0.000000 1.000000
0.000000 0.000000 1.000000
0.000000 0.000000 1.000000
0.000000 0.000000 1.000000
0.000000 0.000000 1.000000
0.000000 0.000000 1.000000
0.000000 0.000000 1.000000
0.000000 0.000000 1.000000
0.000000 0.000000 1.000000
0.000000 0.000000 1.000000
0.000000 0.000000 1.000000
0.000000 0.000000 1.000000
0.000000 0.000000 1.000000
0.000000 0.000000 1.000000
0.000000 0.000000 1.000000
0.000000 0.000000 1.000000
0.000000 0.000000 1.000000
0.000000 0.000000 1.000000
0.000000 0.000000 1.000000
0.000000 0.000000 1.000000
0.000000 0.000000 1.000000
0.000000 0.000000 1.000000
0.000000 0.000000 1.000000
0.000000 0.000000 1.000000
0.000000 0.000000 1.000000
0.000000 0.000000 1.000000
0.000000 0.000000 1.000000
0.000000 0.000000 1.000000
0.000000 0.000000 1.000000
0.000000 0.000000 1.000000
0.000000 0.000000 1.000000
0.000000 0.000000 1.000000
0.000000 0.000000 1.000000
0.000000 0.000000 1.000000
0.000000 0.000000 1.000000
0.000000 0.000000 1.000000
0.000000 0.000000 1.000000
0.000000 0.000000 1.000000
0.000000 0.000000 1.000000
0.000000 0.000000 1.000000
0.000000 0.000000 1.000000
0.000000 0.000000 1.000000
0.000000 0.000000 1.000000
0.000000 0.000000 1.000000
0.000000 0.000000 1.000000
0.000000 0.000000 1.000000
0.000000 0.000000 1.000000
0.000000 0.000000 1.000000
0.000000 0.000000 1.000000
0.000000 0.000000 1.000000
0.000000 0.000000 1.000000
0.000000 0.000000 1.000000
0.000000 0.000000 1.000000
0.000000 0.000000 1.000000
0.000000 0.000000 1.000000
0.000000 0.000000 1.000000
0.000000 0.000000 1.000000
0.000000 0.000000 1.000000
0.000000 0.000000 1.000000
0.000000 0.000000 1.000000
0.000000 0.000000 1.000000
0.000000 0.000000 1.000000
0.000000 0.000000 1.000000
0.000000 0.000000 1.000000
0.000000 0.000000 1.000000
0.000000 0.000000 1.000000
0.000000 0.000000 1.000000
0.000000 0.000000 1.000000
0.000000 0.000000 1.000000
0.000000 0.000000 1.000000
0.000000 0.000000 1.000000
0.000000 0.000000 1.000000
0.000000 0.000000 1.000000
0.000000 0.000000 1.000000
0.000000 0.000000 1.000000
0.000000 0.000000 1.000000
0.000000 0.000000 1.000000
0.000000 0.000000 1.000000
0.000000 0.000000 1.000000
0.000000 0.000000 1.000000
0.000000 0.000000 1.000000
0.000000 0.000000 1.000000
0.000000 0.000000 1.000000
0.000000 0.000000 1.000000
0.000000 0.000000 1.000000
0.000000 0.000000 1.000000
0.000000 0.000000 1.000000
0.000000 0.000000 1.000000
0.000000 0.000000 1.000000
0.000000 0.000000 1.000000
0.000000 0.000000 1.000000
0.000000 0.000000 1.000000
0.000000 0.000000 1.000000
0.000000 0.000000 1.000000
0.000000 0.000000 1.000000
0.000000 0.000000 1.000000
0.000000 0.000000 1.000000
0.000000 0.000000 1.000000
0.000000 0.000000 1.000000
0.000000 0.000000 1.000000
0.000000 0.000000 1.000000
0.000000 0.000000 1.000000
0.000000 0.000000 1.000000
0.000000 0.000000 1.000000
0.000000 0.000000 1.000000
0.000000 0.000000 1.000000
0.000000 0.000000 1.000000
0.000000 0.000000 1.000000
0.000000 0.000000 1.000000
0.000000 0.000000 1.000000
0.000000 0.000000 1.000000
0.000000 0.000000 1.000000
0.000000 0.000000 1.000000
0.000000 0.000000 1.000000
0.000000 0.000000 1.000000
0.000000 0.000000 1.000000
0.000000 0.000000 1.000000
0.000000 0.000000 1.000000
0.000000 0.000000 1.000000
0.000000 0.000000 1.000000
0.000000 0.000000 1.000000
0.000000 0.000000 1.000000
0.000000 0.000000 1.000000
0.000000 0.000000 1.000000
0.000000 0.000000 1.000000
0.000000 0.000000 1.000000
0.000000 0.000000 1.000000
0.000000 0.000000 1.000000
0.000000 0.000000 1.000000
0.000000 0.000000 1.000000
0.000000 0.000000 1.000000
0.000000 0.000000 1.000000
0.000000 0.000000 1.000000
0.000000 0.000000 1.000000
0.000000 0.000000 1.000000
0.000000 0.000000 1.000000
0.000000 0.000000 1.000000
0.000000 0.000000 1.000000
0.000000 0.000000 1.000000
0.000000 0.000000 1.000000
0.000000 0.000000 1.000000
0.000000 0.000000 1.000000
0.000000 0.000000 1.000000
0.000000 0.000000 1.000000
0.000000 0.000000 1.000000
0.000000 0.000000 1.000000
0.000000 0.000000 1.000000
0.000000 0.000000 1.000000
0.000000 0.000000 1.000000
0.000000 0.000000 1.000000
0.000000 0.000000 1.000000
0.000000 0.000000 1.000000
0.000000 0.000000 1.000000
0.000000 0.000000 1.000000
0.000000 0.000000 1.000000
0.000000 0.000000 1.000000
0.000000 0.000000 1.000000
0.000000 0.000000 1.000000
0.000000 0.000000 1.000000
0.000000 0.000000 1.000000
0.000000 0.000000 1.000000
0.000000 0.000000 1.000000
0.000000 0.000000 1.000000
0.000000 0.000000 1.000000
0.000000 0.000000 1.000000
0.000000 0.000000 1.000000
0.000000 0.000000 1.000000
0.000000 0.000000 1.000000
0.000000 0.000000 1.000000
0.000000 0.000000 1.000000
0.000000 0.000000 1.000000
0.000000 0.000000 1.000000
0.000000 0.000000 1.000000
0.000000 0.000000 1.000000
0.000000 0.000000 1.000000
0.000000 0.000000 1.000000
0.000000 0.000000 1.000000
0.000000 0.000000 1.000000
0.000000 0.000000 1.000000
0.000000 0.000000 1.000000
0.000000 0.000000 1.000000
0.000000 0.000000 1.000000
0.000000 0.000000 1.000000
0.000000 0.000000 1.000000
0.000000 0.000000 1.000000
0.000000 0.000000 1.000000
0.000000 0.000000 1.000000
0.000000 0.000000 1.000000
0.000000 0.000000 1.000000
0.000000 0.000000 1.000000
0.000000 0.000000 1.000000
0.000000 0.000000 1.000000
0.000000 0.000000 1.000000
0.000000 0.000000 1.000000
0.000000 0.000000 1.000000
0.000000 0.000000 1.000000
0.000000 0.000000 1.000000
0.000000 0.000000 1.000000
0.000000 0.000000 1.000000
0.000000 0.000000 1.000000
0.000000 0.000000 1.000000
0.000000 0.000000 1.000000
0.000000 0.000000 1.000000
0.000000 0.000000 1.000000
0.000000 0.000000 1.000000
0.000000 0.000000 1.000000
0.000000 0.000000 1.000000
0.000000 0.000000 1.000000
0.000000 0.000000 1.000000
0.000000 0.000000 1.000000
0.000000 0.000000 1.000000
0.000000 0.000000 1.000000
0.000000 0.000000 1.000000
0.000000 0.000000 1.000000
0.000000 0.000000 1.000000
0.000000 0.000000 1.000000
0.000000 0.000000 1.000000
0.000000 0.000000 1.000000
0.000000 0.000000 1.000000
0.000000 0.000000 1.000000
0.000000 0.000000 1.000000
0.000000 0.000000 1.000000
0.000000 0.000000 1.000000
0.000000 0.000000 1.000000
0.000000 0.000000 1.000000
0.000000 0.000000 1.000000
0.000000 0.000000 1.000000
0.000000 0.000000 1.000000
0.000000 0.000000 1.000000
0.000000 0.000000 1.000000
0.000000 0.000000 1.000000
0.000000 0.000000 1.000000
0.000000 0.000000 1.000000
0.000000 0.000000 1.000000
0.000000 0.000000 1.000000
0.000000 0.000000 1.000000
0.000000 0.000000 1.000000
0.000000 0.000000 1.000000
0.000000 0.000000 1.000000
0.000000 0.000000 1.000000
0.000000 0.000000 1.000000
0.000000 0.000000 1.000000
0.000000 0.000000 1.000000
0.000000 0.000000 1.000000
0.000000 0.000000 1.000000
0.000000 0.000000 1.000000
0.000000 0.000000 1.000000
0.000000 0.000000 1.000000
0.000000 0.000000 1.000000
0.000000 0.000000 1.000000
0.000000 0.000000 1.000000
0.000000 0.000000 1.000000
0.000000 0.000000 1.000000
0.000000 0.000000 1.000000
0.000000 0.000000 1.000000
0.000000 0.000000 1.000000
0.000000 0.000000 1.000000
0.000000 0.000000 1.000000
0.000000 0.000000 1.000000
0.000000 0.000000 1.000000
0.000000 0.000000 1.000000
0.000000 0.000000 1.000000
0.000000 0.000000 1.000000
0.000000 0.000000 1.000000
0.000000 0.000000 1.000000
0.000000 0.000000 1.000000
0.000000 0.000000 1.000000
0.000000 0.000000 1.000000
0.000000 0.000000 1.000000
0.000000 0.000000 1.000000
0.000000 0.000000 1.000000
0.000000 0.000000 1.000000
0.000000 0.000000 1.000000
0.000000 0.000000 1.000000
0.000000 0.000000 1.000000
0.000000 -1.000000 0.000000
0.000000 -1.000000 0.000000
0.000000 -1.000000 0.000000
0.000000 -1.000000 0.000000
0.000000 -1.000000 0.000000
0.000000 -1.000000 0.000000
0.000000 -1.000000 0.000000
0.000000 -1.000000 0.000000
0.000000 -1.000000 0.000000
0.000000 -1.000000 0.000000
0.000000 -1.000000 0.000000
0.000000 -1.000000 0.000000
0.000000 -1.000000 0.000000
0.000000 -1.000000 0.000000
0.000000 -1.000000 0.000000
0.000000 -1.000000 0.000000
0.000000 -1.000000 0.000000
0.000000 -1.000000 0.000000
0.000000 -1.000000 0.000000
0.000000 -1.000000 0.000000
0.000000 -1.000000 0.000000
0.000000 -1.000000 0.000000
0.000000 -1.000000 0.000000
0.000000 -1.000000 0.000000
0.000000 -1.000000 0.000000
0.000000 -1.000000 0.000000
0.000000 -1.000000 0.000000
0.000000 -1.000000 0.000000
0.000000 -1.000000 0.000000
0.000000 -1.000000 0.000000
0.000000 -1.000000 0.000000
0.000000 -1.000000 0.000000
0.000000 -1.000000 0.000000
0.000000 -1.000000 0.000000
0.000000 -1.000000 0.000000
0.000000 -1.000000 0.000000
0.000000 -1.000000 0.000000
0.000000 -1.000000 0.000000
0.000000 -1.000000 0.000000
0.000000 -1.000000 0.000000
0.000000 -1.000000 0.000000
0.000000 -1.000000 0.000000
0.000000 -1.000000 0.000000
0.000000 -1.000000 0.000000
0.000000 -1.000000 0.000000
0.000000 -1.000000 0.000000
0.000000 -1.000000 0.000000
0.000000 -1.000000 0.000000
0.000000 -1.000000 0.000000
0.000000 -1.000000 0.000000
0.000000 -1.000000 0.000000
0.000000 -1.000000 0.000000
0.000000 -1.000000 0.000000
0.000000 -1.000000 0.000000
0.000000 -1.000000 0.000000
0.000000 -1.000000 0.000000
0.000000 -1.000000 0.000000
0.000000 -1.000000 0.000000
0.000000 -1.000000 0.000000
0.000000 -1.000000 0.000000
1.000000 0.000000 0.000000
1.000000 0.000000 0.000000
1.000000 0.000000 0.000000
1.000000 0.000000 0.000000
1.000000 0.000000 0.000000
1.000000 0.000000 0.000000
1.000000 0.000000 0.000000
1.000000 0.000000 0.000000
1.000000 0.000000 0.000000
1.000000 0.000000 0.000000
1.000000 0.000000 0.000000
1.000000 0.000000 0.000000
1.000000 0.000000 0.000000
1.000000 0.000000 0.000000
1.000000 0.000000 0.000000
1.000000 0.000000 0.000000
1.000000 0.000000 0.000000
1.000000 0.000000 0.000000
1.000000 0.000000 0.000000
1.000000 0.000000 0.000000
1.000000 0.000000 0.000000
1.000000 0.000000 0.000000
1.000000 0.000000 0.000000
1.000000 0.000000 0.000000
1.000000 0.000000 0.000000
1.000000 0.000000 0.000000
1.000000 0.000000 0.000000
1.000000 0.000000 0.000000
1.000000 0.000000 0.000000
1.000000 0.000000 0.000000
1.000000 0.000000 0.000000
1.000000 0.000000 0.000000
1.000000 0.000000 0.000000
1.000000 0.000000 0.000000
1.000000 0.000000 0.000000
1.000000 0.000000 0.000000
1.000000 0.000000 0.000000
1.000000 0.000000 0.000000
1.000000 0.000000 0.000000
1.000000 0.000000 0.000000
1.000000 0.000000 0.000000
1.000000 0.000000 0.000000
1.000000 0.000000 0.000000
1.000000 0.000000 0.000000
1.000000 0.000000 0.000000
1.000000 0.000000 0.000000
1.000000 0.000000 0.000000
1.000000 0.000000 0.000000
1.000000 0.000000 0.000000
1.000000 0.000000 0.000000
1.000000 0.000000 0.000000
1.000000 0.000000 0.000000
1.000000 0.000000 0.000000
1.000000 0.000000 0.000000
1.000000 0.000000 0.000000
1.000000 0.000000 0.000000
1.000000 0.000000 0.000000
1.000000 0.000000 0.000000
1.000000 0.000000 0.000000
1.000000 0.000000 0.000000
0.000000 1.000000 0.000000
0.000000 1.000000 0.000000
0.000000 1.000000 0.000000
0.000000 1.000000 0.000000
0.000000 1.000000 0.000000
0.000000 1.000000 0.000000
0.000000 1.000000 0.000000
0.000000 1.000000 0.000000
0.000000 1.000000 0.000000
0.000000 1.000000 0.000000
0.000000 1.000000 0.000000
0.000000 1.000000 0.000000
0.000000 1.000000 0.000000
0.000000 1.000000 0.000000
0.000000 1.000000 0.000000
0.000000 1.000000 0.000000
0.000000 1.000000 0.000000
0.000000 1.000000 0.000000
0.000000 1.000000 0.000000
0.000000 1.000000 0.000000
0.000000 1.000000 0.000000
0.000000 1.000000 0.000000
0.000000 1.000000 0.000000
0.000000 1.000000 0.000000
0.000000 1.000000 0.000000
0.000000 1.000000 0.000000
0.000000 1.000000 0.000000
0.000000 1.000000 0.000000
0.000000 1.000000 0.000000
0.000000 1.000000 0.000000
0.000000 1.000000 0.000000
0.000000 1.000000 0.000000
0.000000 1.000000 0.000000
0.000000 1.000000 0.000000
0.000000 1.000000 0.000000
0.000000 1.000000 0.000000
0.000000 1.000000 0.000000
0.000000 1.000000 0.000000
0.000000 1.000000 0.000000
0.000000 1.000000 0.000000
0.000000 1.000000 0.000000
0.000000 1.000000 0.000000
0.000000 1.000000 0.000000
0.000000 1.000000 0.000000
0.000000 1.000000 0.000000
0.000000 1.000000 0.000000
0.000000 1.000000 0.000000
0.000000 1.000000 0.000000
0.000000 1.000000 0.000000
0.000000 1.000000 0.000000
0.000000 1.000000 0.000000
0.000000 1.000000 0.000000
0.000000 1.000000 0.000000
0.000000 1.000000 0.000000
0.000000 1.000000 0.000000
0.000000 1.000000 0.000000
0.000000 1.000000 0.000000
0.000000 1.000000 0.000000
0.000000 1.000000 0.000000
0.000000 1.000000 0.000000
-1.000000 0.000000 0.000000
-1.000000 0.000000 0.000000
-1.000000 0.000000 0.000000
-1.000000 0.000000 0.000000
-1.000000 0.000000 0.000000
-1.000000 0.000000 0.000000
-1.000000 0.000000 0.000000
-1.000000 0.000000 0.000000
-1.000000 0.000000 0.000000
-1.000000 0.000000 0.000000
-1.000000 0.000000 0.000000
-1.000000 0.000000 0.000000
-1.000000 0.000000 0.000000
-1.000000 0.000000 0.000000
-1.000000 0.000000 0.000000
-1.000000 0.000000 0.000000
-1.000000 0.000000 0.000000
-1.000000 0.000000 0.000000
-1.000000 0.000000 0.000000
-1.000000 0.000000 0.000000
-1.000000 0.000000 0.000000
-1.000000 0.000000 0.000000
-1.000000 0.000000 0.000000
-1.000000 0.000000 0.000000
-1.000000 0.000000 0.000000
-1.000000 0.000000 0.000000
-1.000000 0.000000 0.000000
-1.000000 0.000000 0.000000
-1.000000 0.000000 0.000000
-1.000000 0.000000 0.000000
-1.000000 0.000000 0.000000
-1.000000 0.000000 0.000000
-1.000000 0.000000 0.000000
-1.000000 0.000000 0.000000
-1.000000 0.000000 0.000000
-1.000000 0.000000 0.000000
-1.000000 0.000000 0.000000
-1.000000 0.000000 0.000000
-1.000000 0.000000 0.000000
-1.000000 0.000000 0.000000
-1.000000 0.000000 0.000000
-1.000000 0.000000 0.000000
-1.000000 0.000000 0.000000
-1.000000 0.000000 0.000000
-1.000000 0.000000 0.000000
-1.000000 0.000000 0.000000
-1.000000 0.000000 0.000000
-1.000000 0.000000 0.000000
-1.000000 0.000000 0.000000
-1.000000 0.000000 0.000000
-1.000000 0.000000 0.000000
-1.000000 0.000000 0.000000
-1.000000 0.000000 0.000000
-1.000000 0.000000 0.000000
-1.000000 0.000000 0.000000
-1.000000 0.000000 0.000000
-1.000000 0.000000 0.000000
-1.000000 0.000000 0.000000
-1.000000 0.000000 0.000000
-1.000000 0.000000 0.000000
</float_array>
          <technique_common>
            <accessor source="#Box001-Normal0-array" count="1332" stride="3">
              <param name="X" type="float"/>
              <param name="Y" type="float"/>
              <param name="Z" type="float"/>
            </accessor>
          </technique_common>
        </source>
        <source id="Box001-UV0">
          <float_array id="Box001-UV0-array" count="650">
1.000000 0.000000
0.900000 0.000000
0.800000 0.000000
0.700000 0.000000
0.600000 0.000000
0.500000 0.000000
0.400000 0.000000
0.300000 0.000000
0.200000 0.000000
0.100000 0.000000
-0.000000 0.000000
1.000000 0.100000
0.900000 0.100000
0.800000 0.100000
0.700000 0.100000
0.600000 0.100000
0.500000 0.100000
0.400000 0.100000
0.300000 0.100000
0.200000 0.100000
0.100000 0.100000
-0.000000 0.100000
1.000000 0.200000
0.900000 0.200000
0.800000 0.200000
0.700000 0.200000
0.600000 0.200000
0.500000 0.200000
0.400000 0.200000
0.300000 0.200000
0.200000 0.200000
0.100000 0.200000
-0.000000 0.200000
1.000000 0.300000
0.900000 0.300000
0.800000 0.300000
0.700000 0.300000
0.600000 0.300000
0.500000 0.300000
0.400000 0.300000
0.300000 0.300000
0.200000 0.300000
0.100000 0.300000
-0.000000 0.300000
1.000000 0.400000
0.900000 0.400000
0.800000 0.400000
0.700000 0.400000
0.600000 0.400000
0.500000 0.400000
0.400000 0.400000
0.300000 0.400000
0.200000 0.400000
0.100000 0.400000
-0.000000 0.400000
1.000000 0.500000
0.900000 0.500000
0.800000 0.500000
0.700000 0.500000
0.600000 0.500000
0.500000 0.500000
0.400000 0.500000
0.300000 0.500000
0.200000 0.500000
0.100000 0.500000
-0.000000 0.500000
1.000000 0.600000
0.900000 0.600000
0.800000 0.600000
0.700000 0.600000
0.600000 0.600000
0.500000 0.600000
0.400000 0.600000
0.300000 0.600000
0.200000 0.600000
0.100000 0.600000
-0.000000 0.600000
1.000000 0.700000
0.900000 0.700000
0.800000 0.700000
0.700000 0.700000
0.600000 0.700000
0.500000 0.700000
0.400000 0.700000
0.300000 0.700000
0.200000 0.700000
0.100000 0.700000
-0.000000 0.700000
1.000000 0.800000
0.900000 0.800000
0.800000 0.800000
0.700000 0.800000
0.600000 0.800000
0.500000 0.800000
0.400000 0.800000
0.300000 0.800000
0.200000 0.800000
0.100000 0.800000
-0.000000 0.800000
1.000000 0.900000
0.900000 0.900000
0.800000 0.900000
0.700000 0.900000
0.600000 0.900000
0.500000 0.900000
0.400000 0.900000
0.300000 0.900000
0.200000 0.900000
0.100000 0.900000
-0.000000 0.900000
1.000000 1.000000
0.900000 1.000000
0.800000 1.000000
0.700000 1.000000
0.600000 1.000000
0.500000 1.000000
0.400000 1.000000
0.300000 1.000000
0.200000 1.000000
0.100000 1.000000
-0.000000 1.000000
0.000000 0.000000
0.100000 0.000000
0.200000 0.000000
0.300000 0.000000
0.400000 0.000000
0.500000 0.000000
0.600000 0.000000
0.700000 0.000000
0.800000 0.000000
0.900000 0.000000
1.000000 0.000000
0.000000 0.100000
0.100000 0.100000
0.200000 0.100000
0.300000 0.100000
0.400000 0.100000
0.500000 0.100000
0.600000 0.100000
0.700000 0.100000
0.800000 0.100000
0.900000 0.100000
1.000000 0.100000
0.000000 0.200000
0.100000 0.200000
0.200000 0.200000
0.300000 0.200000
0.400000 0.200000
0.500000 0.200000
0.600000 0.200000
0.700000 0.200000
0.800000 0.200000
0.900000 0.200000
1.000000 0.200000
0.000000 0.300000
0.100000 0.300000
0.200000 0.300000
0.300000 0.300000
0.400000 0.300000
0.500000 0.300000
0.600000 0.300000
0.700000 0.300000
0.800000 0.300000
0.900000 0.300000
1.000000 0.300000
0.000000 0.400000
0.100000 0.400000
0.200000 0.400000
0.300000 0.400000
0.400000 0.400000
0.500000 0.400000
0.600000 0.400000
0.700000 0.400000
0.800000 0.400000
0.900000 0.400000
1.000000 0.400000
0.000000 0.500000
0.100000 0.500000
0.200000 0.500000
0.800000 0.500000
0.900000 0.500000
1.000000 0.500000
0.000000 0.600000
0.100000 0.600000
0.200000 0.600000
0.300000 0.600000
0.400000 0.600000
0.500000 0.600000
0.600000 0.600000
0.700000 0.600000
0.800000 0.600000
0.900000 0.600000
1.000000 0.600000
0.000000 0.700000
0.100000 0.700000
0.200000 0.700000
0.300000 0.700000
0.400000 0.700000
0.500000 0.700000
0.600000 0.700000
0.700000 0.700000
0.800000 0.700000
0.900000 0.700000
1.000000 0.700000
0.000000 0.800000
0.100000 0.800000
0.200000 0.800000
0.300000 0.800000
0.400000 0.800000
0.500000 0.800000
0.600000 0.800000
0.700000 0.800000
0.800000 0.800000
0.900000 0.800000
1.000000 0.800000
0.000000 0.900000
0.100000 0.900000
0.200000 0.900000
0.300000 0.900000
0.400000 0.900000
0.500000 0.900000
0.600000 0.900000
0.700000 0.900000
0.800000 0.900000
0.900000 0.900000
1.000000 0.900000
0.000000 1.000000
0.100000 1.000000
0.200000 1.000000
0.300000 1.000000
0.400000 1.000000
0.500000 1.000000
0.600000 1.000000
0.700000 1.000000
0.800000 1.000000
0.900000 1.000000
1.000000 1.000000
0.000000 0.000000
0.100000 0.000000
0.200000 0.000000
0.300000 0.000000
0.400000 0.000000
0.500000 0.000000
0.600000 0.000000
0.700000 0.000000
0.800000 0.000000
0.900000 0.000000
1.000000 0.000000
0.000000 1.000000
0.100000 1.000000
0.200000 1.000000
0.300000 1.000000
0.400000 1.000000
0.500000 1.000000
0.600000 1.000000
0.700000 1.000000
0.800000 1.000000
0.900000 1.000000
1.000000 1.000000
0.000000 0.000000
0.100000 0.000000
0.200000 0.000000
0.300000 0.000000
0.400000 0.000000
0.500000 0.000000
0.600000 0.000000
0.700000 0.000000
0.800000 0.000000
0.900000 0.000000
1.000000 0.000000
0.000000 1.000000
0.100000 1.000000
0.200000 1.000000
0.300000 1.000000
0.400000 1.000000
0.500000 1.000000
0.600000 1.000000
0.700000 1.000000
0.800000 1.000000
0.900000 1.000000
1.000000 1.000000
0.000000 0.000000
0.100000 0.000000
0.200000 0.000000
0.300000 0.000000
0.400000 0.000000
0.500000 0.000000
0.600000 0.000000
0.700000 0.000000
0.800000 0.000000
0.900000 0.000000
1.000000 0.000000
0.000000 1.000000
0.100000 1.000000
0.200000 1.000000
0.300000 1.000000
0.400000 1.000000
0.500000 1.000000
0.600000 1.000000
0.700000 1.000000
0.800000 1.000000
0.900000 1.000000
1.000000 1.000000
0.000000 0.000000
0.100000 0.000000
0.200000 0.000000
0.300000 0.000000
0.400000 0.000000
0.500000 0.000000
0.600000 0.000000
0.700000 0.000000
0.800000 0.000000
0.900000 0.000000
1.000000 0.000000
0.000000 1.000000
0.100000 1.000000
0.200000 1.000000
0.300000 1.000000
0.400000 1.000000
0.500000 1.000000
0.600000 1.000000
0.700000 1.000000
0.800000 1.000000
0.900000 1.000000
1.000000 1.000000
</float_array>
          <technique_common>
            <accessor source="#Box001-UV0-array" count="325" stride="2">
              <param name="S" type="float"/>
              <param name="T" type="float"/>
            </accessor>
          </technique_common>
        </source>
        <vertices id="Box001-VERTEX">
          <input semantic="POSITION" source="#Box001-POSITION"/>
        </vertices>
        <triangles count="444">
          <input semantic="VERTEX" offset="0" source="#Box001-VERTEX"/>
          <input semantic="NORMAL" offset="1" source="#Box001-Normal0"/>
          <input semantic="TEXCOORD" offset="2" set="0" source="#Box001-UV0"/>
          <p> 1 0 1 0 1 0 12 2 12 0 3 0 11 4 11 12 5 12 2 6 2 1 7 1 13 8 13 1 9 1 12 10 12 13 11 13 3 12 3 2 13 2 14 14 14 2 15 2 13 16 13 14 17 14 4 18 4 3 19 3 15 20 15 3 21 3 14 22 14 15 23 15 5 24 5 4 25 4 16 26 16 4 27 4 15 28 15 16 29 16 6 30 6 5 31 5 17 32 17 5 33 5 16 34 16 17 35 17 7 36 7 6 37 6 18 38 18 6 39 6 17 40 17 18 41 18 8 42 8 7 43 7 19 44 19 7 45 7 18 46 18 19 47 19 9 48 9 8 49 8 20 50 20 8 51 8 19 52 19 20 53 20 10 54 10 9 55 9 21 56 21 9 57 9 20 58 20 21 59 21 12 60 12 11 61 11 23 62 23 11 63 11 22 64 22 23 65 23 13 66 13 12 67 12 24 68 24 12 69 12 23 70 23 24 71 24 14 72 14 13 73 13 25 74 25 13 75 13 24 76 24 25 77 25 15 78 15 14 79 14 26 80 26 14 81 14 25 82 25 26 83 26 16 84 16 15 85 15 27 86 27 15 87 15 26 88 26 27 89 27 17 90 17 16 91 16 28 92 28 16 93 16 27 94 27 28 95 28 18 96 18 17 97 17 29 98 29 17 99 17 28 100 28 29 101 29 19 102 19 18 103 18 30 104 30 18 105 18 29 106 29 30 107 30 20 108 20 19 109 19 31 110 31 19 111 19 30 112 30 31 113 31 21 114 21 20 115 20 32 116 32 20 117 20 31 118 31 32 119 32 23 120 23 22 121 22 34 122 34 22 123 22 33 124 33 34 125 34 24 126 24 23 127 23 35 128 35 23 129 23 34 130 34 35 131 35 25 132 25 24 133 24 36 134 36 24 135 24 35 136 35 36 137 36 26 138 26 25 139 25 37 140 37 25 141 25 36 142 36 37 143 37 27 144 27 26 145 26 38 146 38 26 147 26 37 148 37 38 149 38 28 150 28 27 151 27 39 152 39 27 153 27 38 154 38 39 155 39 29 156 29 28 157 28 40 158 40 28 159 28 39 160 39 40 161 40 30 162 30 29 163 29 41 164 41 29 165 29 40 166 40 41 167 41 31 168 31 30 169 30 42 170 42 30 171 30 41 172 41 42 173 42 32 174 32 31 175 31 43 176 43 31 177 31 42 178 42 43 179 43 34 180 34 33 181 33 45 182 45 33 183 33 44 184 44 45 185 45 35 186 35 34 187 34 46 188 46 34 189 34 45 190 45 46 191 46 36 192 36 35 193 35 47 194 47 35 195 35 46 196 46 47 197 47 37 198 37 36 199 36 48 200 48 36 201 36 47 202 47 48 203 48 38 204 38 37 205 37 49 206 49 37 207 37 48 208 48 49 209 49 39 210 39 38 211 38 50 212 50 38 213 38 49 214 49 50 215 50 40 216 40 39 217 39 51 218 51 39 219 39 50 220 50 51 221 51 41 222 41 40 223 40 52 224 52 40 225 40 51 226 51 52 227 52 42 228 42 41 229 41 53 230 53 41 231 41 52 232 52 53 233 53 43 234 43 42 235 42 54 236 54 42 237 42 53 238 53 54 239 54 45 240 45 44 241 44 56 242 56 44 243 44 55 244 55 56 245 56 46 246 46 45 247 45 57 248 57 45 249 45 56 250 56 57 251 57 47 252 47 46 253 46 58 254 58 46 255 46 57 256 57 58 257 58 48 258 48 47 259 47 59 260 59 47 261 47 58 262 58 59 263 59 49 264 49 48 265 48 60 266 60 48 267 48 59 268 59 60 269 60 50 270 50 49 271 49 61 272 61 49 273 49 60 274 60 61 275 61 51 276 51 50 277 50 62 278 62 50 279 50 61 280 61 62 281 62 52 282 52 51 283 51 63 284 63 51 285 51 62 286 62 63 287 63 53 288 53 52 289 52 64 290 64 52 291 52 63 292 63 64 293 64 54 294 54 53 295 53 65 296 65 53 297 53 64 298 64 65 299 65 56 300 56 55 301 55 67 302 67 55 303 55 66 304 66 67 305 67 57 306 57 56 307 56 68 308 68 56 309 56 67 310 67 68 311 68 58 312 58 57 313 57 69 314 69 57 315 57 68 316 68 69 317 69 59 318 59 58 319 58 70 320 70 58 321 58 69 322 69 70 323 70 60 324 60 59 325 59 71 326 71 59 327 59 70 328 70 71 329 71 61 330 61 60 331 60 72 332 72 60 333 60 71 334 71 72 335 72 62 336 62 61 337 61 73 338 73 61 339 61 72 340 72 73 341 73 63 342 63 62 343 62 74 344 74 62 345 62 73 346 73 74 347 74 64 348 64 63 349 63 75 350 75 63 351 63 74 352 74 75 353 75 65 354 65 64 355 64 76 356 76 64 357 64 75 358 75 76 359 76 67 360 67 66 361 66 78 362 78 66 363 66 77 364 77 78 365 78 68 366 68 67 367 67 79 368 79 67 369 67 78 370 78 79 371 79 69 372 69 68 373 68 80 374 80 68 375 68 79 376 79 80 377 80 70 378 70 69 379 69 81 380 81 69 381 69 80 382 80 81 383 81 71 384 71 70 385 70 82 386 82 70 387 70 81 388 81 82 389 82 72 390 72 71 391 71 83 392 83 71 393 71 82 394 82 83 395 83 73 396 73 72 397 72 84 398 84 72 399 72 83 400 83 84 401 84 74 402 74 73 403 73 85 404 85 73 405 73 84 406 84 85 407 85 75 408 75 74 409 74 86 410 86 74 411 74 85 412 85 86 413 86 76 414 76 75 415 75 87 416 87 75 417 75 86 418 86 87 419 87 78 420 78 77 421 77 89 422 89 77 423 77 88 424 88 89 425 89 79 426 79 78 427 78 90 428 90 78 429 78 89 430 89 90 431 90 80 432 80 79 433 79 91 434 91 79 435 79 90 436 90 91 437 91 81 438 81 80 439 80 92 440 92 80 441 80 91 442 91 92 443 92 82 444 82 81 445 81 93 446 93 81 447 81 92 448 92 93 449 93 83 450 83 82 451 82 94 452 94 82 453 82 93 454 93 94 455 94 84 456 84 83 457 83 95 458 95 83 459 83 94 460 94 95 461 95 85 462 85 84 463 84 96 464 96 84 465 84 95 466 95 96 467 96 86 468 86 85 469 85 97 470 97 85 471 85 96 472 96 97 473 97 87 474 87 86 475 86 98 476 98 86 477 86 97 478 97 98 479 98 89 480 89 88 481 88 100 482 100 88 483 88 99 484 99 100 485 100 90 486 90 89 487 89 101 488 101 89 489 89 100 490 100 101 491 101 91 492 91 90 493 90 102 494 102 90 495 90 101 496 101 102 497 102 92 498 92 91 499 91 103 500 103 91 501 91 102 502 102 103 503 103 93 504 93 92 505 92 104 506 104 92 507 92 103 508 103 104 509 104 94 510 94 93 511 93 105 512 105 93 513 93 104 514 104 105 515 105 95 516 95 94 517 94 106 518 106 94 519 94 105 520 105 106 521 106 96 522 96 95 523 95 107 524 107 95 525 95 106 526 106 107 527 107 97 528 97 96 529 96 108 530 108 96 531 96 107 532 107 108 533 108 98 534 98 97 535 97 109 536 109 97 537 97 108 538 108 109 539 109 100 540 100 99 541 99 111 542 111 99 543 99 110 544 110 111 545 111 101 546 101 100 547 100 112 548 112 100 549 100 111 550 111 112 551 112 102 552 102 101 553 101 113 554 113 101 555 101 112 556 112 113 557 113 103 558 103 102 559 102 114 560 114 102 561 102 113 562 113 114 563 114 104 564 104 103 565 103 115 566 115 103 567 103 114 568 114 115 569 115 105 570 105 104 571 104 116 572 116 104 573 104 115 574 115 116 575 116 106 576 106 105 577 105 117 578 117 105 579 105 116 580 116 117 581 117 107 582 107 106 583 106 118 584 118 106 585 106 117 586 117 118 587 118 108 588 108 107 589 107 119 590 119 107 591 107 118 592 118 119 593 119 109 594 109 108 595 108 120 596 120 108 597 108 119 598 119 120 599 120 133 600 133 132 601 132 121 602 121 133 603 133 121 604 121 122 605 122 134 606 134 133 607 133 122 608 122 134 609 134 122 610 122 123 611 123 135 612 135 134 613 134 123 614 123 135 615 135 123 616 123 124 617 124 136 618 136 135 619 135 124 620 124 136 621 136 124 622 124 125 623 125 137 624 137 136 625 136 125 626 125 137 627 137 125 628 125 126 629 126 138 630 138 137 631 137 126 632 126 138 633 138 126 634 126 127 635 127 139 636 139 138 637 138 127 638 127 139 639 139 127 640 127 128 641 128 140 642 140 139 643 139 128 644 128 140 645 140 128 646 128 129 647 129 141 648 141 140 649 140 129 650 129 141 651 141 129 652 129 130 653 130 142 654 142 141 655 141 130 656 130 142 657 142 130 658 130 131 659 131 144 660 144 143 661 143 132 662 132 144 663 144 132 664 132 133 665 133 145 666 145 144 667 144 133 668 133 145 669 145 133 670 133 134 671 134 146 672 146 145 673 145 134 674 134 146 675 146 134 676 134 135 677 135 147 678 147 146 679 146 135 680 135 147 681 147 135 682 135 136 683 136 149 684 149 148 685 148 137 686 137 149 687 149 137 688 137 138 689 138 150 690 150 149 691 149 138 692 138 150 693 150 138 694 138 139 695 139 151 696 151 150 697 150 139 698 139 151 699 151 139 700 139 140 701 140 152 702 152 151 703 151 140 704 140 152 705 152 140 706 140 141 707 141 153 708 153 152 709 152 141 710 141 153 711 153 141 712 141 142 713 142 155 714 155 154 715 154 143 716 143 155 717 155 143 718 143 144 719 144 156 720 156 155 721 155 144 722 144 156 723 156 144 724 144 145 725 145 157 726 157 156 727 156 145 728 145 157 729 157 145 730 145 146 731 146 158 732 158 157 733 157 146 734 146 158 735 158 146 736 146 147 737 147 160 738 160 159 739 159 148 740 148 160 741 160 148 742 148 149 743 149 161 744 161 160 745 160 149 746 149 161 747 161 149 748 149 150 749 150 162 750 162 161 751 161 150 752 150 162 753 162 150 754 150 151 755 151 163 756 163 162 757 162 151 758 151 163 759 163 151 760 151 152 761 152 164 762 164 163 763 163 152 764 152 164 765 164 152 766 152 153 767 153 166 768 166 165 769 165 154 770 154 166 771 166 154 772 154 155 773 155 167 774 167 166 775 166 155 776 155 167 777 167 155 778 155 156 779 156 168 780 168 167 781 167 156 782 156 168 783 168 156 784 156 157 785 157 169 786 169 168 787 168 157 788 157 169 789 169 157 790 157 158 791 158 171 792 171 170 793 170 159 794 159 171 795 171 159 796 159 160 797 160 172 798 172 171 799 171 160 800 160 172 801 172 160 802 160 161 803 161 173 804 173 172 805 172 161 806 161 173 807 173 161 808 161 162 809 162 174 810 174 173 811 173 162 812 162 174 813 174 162 814 162 163 815 163 175 816 175 174 817 174 163 818 163 175 819 175 163 820 163 164 821 164 177 822 177 176 823 176 165 824 165 177 825 177 165 826 165 166 827 166 178 828 178 177 829 177 166 830 166 178 831 178 166 832 166 167 833 167 180 834 180 179 835 179 173 836 173 180 837 180 173 838 173 174 839 174 181 840 181 180 841 180 174 842 174 181 843 181 174 844 174 175 845 175 183 846 183 182 847 182 176 848 176 183 849 183 176 850 176 177 851 177 184 852 184 183 853 183 177 854 177 184 855 184 177 856 177 178 857 178 191 858 191 190 859 190 179 860 179 191 861 191 179 862 179 180 863 180 192 864 192 191 865 191 180 866 180 192 867 192 180 868 180 181 869 181 194 870 194 193 871 193 182 872 182 194 873 194 182 874 182 183 875 183 195 876 195 194 877 194 183 878 183 195 879 195 183 880 183 184 881 184 196 882 196 195 883 195 184 884 184 196 885 196 184 886 184 185 887 185 197 888 197 196 889 196 185 890 185 197 891 197 185 892 185 186 893 186 199 894 199 198 895 198 187 896 187 199 897 199 187 898 187 188 899 188 200 900 200 199 901 199 188 902 188 200 903 200 188 904 188 189 905 189 201 906 201 200 907 200 189 908 189 201 909 201 189 910 189 190 911 190 202 912 202 201 913 201 190 914 190 202 915 202 190 916 190 191 917 191 203 918 203 202 919 202 191 920 191 203 921 203 191 922 191 192 923 192 205 924 205 204 925 204 193 926 193 205 927 205 193 928 193 194 929 194 206 930 206 205 931 205 194 932 194 206 933 206 194 934 194 195 935 195 207 936 207 206 937 206 195 938 195 207 939 207 195 940 195 196 941 196 208 942 208 207 943 207 196 944 196 208 945 208 196 946 196 197 947 197 210 948 210 209 949 209 198 950 198 210 951 210 198 952 198 199 953 199 211 954 211 210 955 210 199 956 199 211 957 211 199 958 199 200 959 200 212 960 212 211 961 211 200 962 200 212 963 212 200 964 200 201 965 201 213 966 213 212 967 212 201 968 201 213 969 213 201 970 201 202 971 202 214 972 214 213 973 213 202 974 202 214 975 214 202 976 202 203 977 203 216 978 216 215 979 215 204 980 204 216 981 216 204 982 204 205 983 205 217 984 217 216 985 216 205 986 205 217 987 217 205 988 205 206 989 206 218 990 218 217 991 217 206 992 206 218 993 218 206 994 206 207 995 207 219 996 219 218 997 218 207 998 207 219 999 219 207 1000 207 208 1001 208 221 1002 221 220 1003 220 209 1004 209 221 1005 221 209 1006 209 210 1007 210 222 1008 222 221 1009 221 210 1010 210 222 1011 222 210 1012 210 211 1013 211 223 1014 223 222 1015 222 211 1016 211 223 1017 223 211 1018 211 212 1019 212 224 1020 224 223 1021 223 212 1022 212 224 1023 224 212 1024 212 213 1025 213 225 1026 225 224 1027 224 213 1028 213 225 1029 225 213 1030 213 214 1031 214 227 1032 227 226 1033 226 215 1034 215 227 1035 227 215 1036 215 216 1037 216 228 1038 228 227 1039 227 216 1040 216 228 1041 228 216 1042 216 217 1043 217 229 1044 229 228 1045 228 217 1046 217 229 1047 229 217 1048 217 218 1049 218 230 1050 230 229 1051 229 218 1052 218 230 1053 230 218 1054 218 219 1055 219 231 1056 231 230 1057 230 219 1058 219 231 1059 231 219 1060 219 220 1061 220 232 1062 232 231 1063 231 220 1064 220 232 1065 232 220 1066 220 221 1067 221 233 1068 233 232 1069 232 221 1070 221 233 1071 233 221 1072 221 222 1073 222 234 1074 234 233 1075 233 222 1076 222 234 1077 234 222 1078 222 223 1079 223 235 1080 235 234 1081 234 223 1082 223 235 1083 235 223 1084 223 224 1085 224 236 1086 236 235 1087 235 224 1088 224 236 1089 236 224 1090 224 225 1091 225 122 1092 249 121 1093 248 0 1094 237 122 1095 249 0 1096 237 1 1097 238 123 1098 250 122 1099 249 1 1100 238 123 1101 250 1 1102 238 2 1103 239 124 1104 251 123 1105 250 2 1106 239 124 1107 251 2 1108 239 3 1109 240 125 1110 252 124 1111 251 3 1112 240 125 1113 252 3 1114 240 4 1115 241 126 1116 253 125 1117 252 4 1118 241 126 1119 253 4 1120 241 5 1121 242 127 1122 254 126 1123 253 5 1124 242 127 1125 254 5 1126 242 6 1127 243 128 1128 255 127 1129 254 6 1130 243 128 1131 255 6 1132 243 7 1133 244 129 1134 256 128 1135 255 7 1136 244 129 1137 256 7 1138 244 8 1139 245 130 1140 257 129 1141 256 8 1142 245 130 1143 257 8 1144 245 9 1145 246 131 1146 258 130 1147 257 9 1148 246 131 1149 258 9 1150 246 10 1151 247 142 1152 271 131 1153 270 10 1154 259 142 1155 271 10 1156 259 21 1157 260 153 1158 272 142 1159 271 21 1160 260 153 1161 272 21 1162 260 32 1163 261 164 1164 273 153 1165 272 32 1166 261 164 1167 273 32 1168 261 43 1169 262 175 1170 274 164 1171 273 43 1172 262 175 1173 274 43 1174 262 54 1175 263 181 1176 275 175 1177 274 54 1178 263 181 1179 275 54 1180 263 65 1181 264 192 1182 276 181 1183 275 65 1184 264 192 1185 276 65 1186 264 76 1187 265 203 1188 277 192 1189 276 76 1190 265 203 1191 277 76 1192 265 87 1193 266 214 1194 278 203 1195 277 87 1196 266 214 1197 278 87 1198 266 98 1199 267 225 1200 279 214 1201 278 98 1202 267 225 1203 279 98 1204 267 109 1205 268 236 1206 280 225 1207 279 109 1208 268 236 1209 280 109 1210 268 120 1211 269 235 1212 293 236 1213 292 120 1214 281 235 1215 293 120 1216 281 119 1217 282 234 1218 294 235 1219 293 119 1220 282 234 1221 294 119 1222 282 118 1223 283 233 1224 295 234 1225 294 118 1226 283 233 1227 295 118 1228 283 117 1229 284 232 1230 296 233 1231 295 117 1232 284 232 1233 296 117 1234 284 116 1235 285 231 1236 297 232 1237 296 116 1238 285 231 1239 297 116 1240 285 115 1241 286 230 1242 298 231 1243 297 115 1244 286 230 1245 298 115 1246 286 114 1247 287 229 1248 299 230 1249 298 114 1250 287 229 1251 299 114 1252 287 113 1253 288 228 1254 300 229 1255 299 113 1256 288 228 1257 300 113 1258 288 112 1259 289 227 1260 301 228 1261 300 112 1262 289 227 1263 301 112 1264 289 111 1265 290 226 1266 302 227 1267 301 111 1268 290 226 1269 302 111 1270 290 110 1271 291 215 1272 315 226 1273 314 110 1274 303 215 1275 315 110 1276 303 99 1277 304 204 1278 316 215 1279 315 99 1280 304 204 1281 316 99 1282 304 88 1283 305 193 1284 317 204 1285 316 88 1286 305 193 1287 317 88 1288 305 77 1289 306 182 1290 318 193 1291 317 77 1292 306 182 1293 318 77 1294 306 66 1295 307 176 1296 319 182 1297 318 66 1298 307 176 1299 319 66 1300 307 55 1301 308 165 1302 320 176 1303 319 55 1304 308 165 1305 320 55 1306 308 44 1307 309 154 1308 321 165 1309 320 44 1310 309 154 1311 321 44 1312 309 33 1313 310 143 1314 322 154 1315 321 33 1316 310 143 1317 322 33 1318 310 22 1319 311 132 1320 323 143 1321 322 22 1322 311 132 1323 323 22 1324 311 11 1325 312 121 1326 324 132 1327 323 11 1328 312 121 1329 324 11 1330 312 0 1331 313</p>
        </triangles>
      </mesh>
    </geometry>
  </library_geometries>
  <library_visual_scenes>
    <visual_scene id="Extra life token" name="Extra life token">
      <node name="Box001" id="Box001" sid="Box001">
        <matrix sid="matrix">-0.000717 0.000000 0.155476 15.677302 -0.155476 0.000000 -0.000717 1.100842 -0.000000 -0.155478 0.000000 -6.412085 0.000000 0.000000 0.000000 1.000000</matrix>
        <instance_geometry url="#Box001-lib"/>
        <extra>
          <technique profile="FCOLLADA">
            <visibility>1.000000</visibility>
          </technique>
        </extra>
      </node>
      <extra>
        <technique profile="MAX3D">
          <frame_rate>30.000000</frame_rate>
        </technique>
        <technique profile="FCOLLADA">
          <start_time>0.000000</start_time>
          <end_time>3.333333</end_time>
        </technique>
      </extra>
    </visual_scene>
  </library_visual_scenes>
  <scene>
    <instance_visual_scene url="#Extra life token"/>
  </scene>
</COLLADA>
